<svg width="334" height="55" viewBox="0 0 334 55" fill="none" xmlns="http://www.w3.org/2000/svg">
<path d="M29 27.5H15" stroke="#555555" stroke-width="2" stroke-linecap="round" stroke-linejoin="round"/>
<path d="M22 34.5L15 27.5L22 20.5" stroke="#555555" stroke-width="2" stroke-linecap="round" stroke-linejoin="round"/>
<path d="M54.34 29.8725H57.5141C57.4505 30.9128 57.1638 31.8364 56.6543 32.6433C56.1518 33.4501 55.4476 34.0799 54.5417 34.5329C53.6429 34.9858 52.56 35.2123 51.2932 35.2123C50.3024 35.2123 49.4142 35.0425 48.6286 34.7028C47.843 34.356 47.1706 33.8606 46.6115 33.2165C46.0595 32.5725 45.6384 31.794 45.3482 30.881C45.0581 29.968 44.913 28.9454 44.913 27.813V26.7408C44.913 25.6084 45.0616 24.5857 45.3588 23.6727C45.6632 22.7527 46.0949 21.9706 46.654 21.3266C47.2202 20.6826 47.8961 20.1872 48.6816 19.8404C49.4672 19.4936 50.3448 19.3202 51.3144 19.3202C52.6025 19.3202 53.6889 19.5537 54.5735 20.0208C55.4653 20.4879 56.1553 21.132 56.6436 21.953C57.139 22.7739 57.4363 23.7081 57.5354 24.7556H54.3506C54.3152 24.1328 54.1913 23.6055 53.979 23.1738C53.7667 22.735 53.4447 22.4059 53.013 22.1865C52.5883 21.96 52.0221 21.8468 51.3144 21.8468C50.7836 21.8468 50.32 21.9459 49.9237 22.144C49.5274 22.3422 49.1948 22.643 48.9258 23.0464C48.6569 23.4498 48.4552 23.9594 48.3207 24.5751C48.1933 25.1838 48.1296 25.8986 48.1296 26.7195V27.813C48.1296 28.6127 48.1898 29.3169 48.3101 29.9256C48.4304 30.5271 48.6144 31.0367 48.8621 31.4543C49.1169 31.8647 49.4425 32.1761 49.8388 32.3885C50.2422 32.5937 50.727 32.6963 51.2932 32.6963C51.9584 32.6963 52.5069 32.5902 52.9387 32.3779C53.3704 32.1655 53.6995 31.8506 53.9259 31.433C54.1595 31.0155 54.2975 30.4953 54.34 29.8725ZM59.6055 19.5431H65.37C66.5519 19.5431 67.5675 19.7201 68.4168 20.0739C69.2731 20.4278 69.9313 20.9515 70.3913 21.6451C70.8514 22.3387 71.0814 23.1915 71.0814 24.2035C71.0814 25.0316 70.9398 25.7429 70.6567 26.3374C70.3807 26.9248 69.9879 27.4166 69.4784 27.813C68.9759 28.2022 68.3849 28.5136 67.7055 28.7472L66.697 29.278H61.6862L61.665 26.7938H65.3912C65.9503 26.7938 66.4139 26.6948 66.7819 26.4966C67.1499 26.2984 67.4259 26.0224 67.6099 25.6686C67.801 25.3147 67.8966 24.9042 67.8966 24.4371C67.8966 23.9417 67.8046 23.5135 67.6206 23.1526C67.4366 22.7916 67.157 22.5156 66.7819 22.3245C66.4068 22.1334 65.9362 22.0379 65.37 22.0379H62.7903V35H59.6055V19.5431ZM68.2469 35L64.7224 28.1102L68.0877 28.089L71.6546 34.8514V35H68.2469ZM83.9055 32.5159V35H75.6781V32.5159H83.9055ZM76.7185 19.5431V35H73.5337V19.5431H76.7185ZM82.8333 25.8384V28.2589H75.6781V25.8384H82.8333ZM83.8949 19.5431V22.0379H75.6781V19.5431H83.8949ZM77.451 18.6302L79.5317 15.3604H82.8545L79.9351 18.6302H77.451ZM96.1351 32.5159V35H87.9077V32.5159H96.1351ZM88.9481 19.5431V35H85.7633V19.5431H88.9481ZM95.0629 25.8384V28.2589H87.9077V25.8384H95.0629ZM96.1245 19.5431V22.0379H87.9077V19.5431H96.1245ZM97.9929 19.5431H103.757C104.939 19.5431 105.955 19.7201 106.804 20.0739C107.661 20.4278 108.319 20.9515 108.779 21.6451C109.239 22.3387 109.469 23.1915 109.469 24.2035C109.469 25.0316 109.327 25.7429 109.044 26.3374C108.768 26.9248 108.375 27.4166 107.866 27.813C107.363 28.2022 106.772 28.5136 106.093 28.7472L105.084 29.278H100.074L100.052 26.7938H103.779C104.338 26.7938 104.801 26.6948 105.169 26.4966C105.537 26.2984 105.813 26.0224 105.997 25.6686C106.188 25.3147 106.284 24.9042 106.284 24.4371C106.284 23.9417 106.192 23.5135 106.008 23.1526C105.824 22.7916 105.544 22.5156 105.169 22.3245C104.794 22.1334 104.324 22.0379 103.757 22.0379H101.178V35H97.9929V19.5431ZM106.634 35L103.11 28.1102L106.475 28.089L110.042 34.8514V35H106.634ZM125.87 19.5431H129.045V29.7557C129.045 30.9447 128.79 31.9461 128.28 32.76C127.778 33.5739 127.081 34.1861 126.189 34.5966C125.304 35.0071 124.285 35.2123 123.132 35.2123C121.978 35.2123 120.952 35.0071 120.053 34.5966C119.161 34.1861 118.461 33.5739 117.951 32.76C117.448 31.9461 117.197 30.9447 117.197 29.7557V19.5431H120.382V29.7557C120.382 30.4493 120.492 31.0155 120.711 31.4543C120.93 31.8931 121.245 32.2151 121.656 32.4203C122.073 32.6256 122.565 32.7282 123.132 32.7282C123.712 32.7282 124.204 32.6256 124.607 32.4203C125.018 32.2151 125.329 31.8931 125.541 31.4543C125.761 31.0155 125.87 30.4493 125.87 29.7557V19.5431ZM144.247 19.5431V35H141.062L134.852 24.6388V35H131.667V19.5431H134.852L141.073 29.9149V19.5431H144.247ZM165.012 19.5431V35H161.827L155.616 24.6388V35H152.432V19.5431H155.616L161.837 29.9149V19.5431H165.012ZM180.479 26.9106V27.6431C180.479 28.818 180.32 29.8725 180.001 30.8067C179.683 31.7409 179.233 32.5371 178.653 33.1953C178.073 33.8464 177.379 34.3453 176.572 34.6921C175.773 35.0389 174.884 35.2123 173.908 35.2123C172.938 35.2123 172.05 35.0389 171.243 34.6921C170.443 34.3453 169.75 33.8464 169.162 33.1953C168.575 32.5371 168.119 31.7409 167.793 30.8067C167.475 29.8725 167.315 28.818 167.315 27.6431V26.9106C167.315 25.7287 167.475 24.6742 167.793 23.7471C168.111 22.8129 168.561 22.0167 169.141 21.3585C169.729 20.7003 170.422 20.1978 171.222 19.851C172.029 19.5042 172.917 19.3308 173.887 19.3308C174.863 19.3308 175.751 19.5042 176.551 19.851C177.358 20.1978 178.052 20.7003 178.632 21.3585C179.219 22.0167 179.672 22.8129 179.991 23.7471C180.316 24.6742 180.479 25.7287 180.479 26.9106ZM177.262 27.6431V26.8894C177.262 26.0684 177.188 25.3465 177.04 24.7237C176.891 24.1009 176.671 23.5772 176.381 23.1526C176.091 22.7279 175.737 22.4094 175.32 22.1971C174.902 21.9777 174.424 21.868 173.887 21.868C173.349 21.868 172.871 21.9777 172.453 22.1971C172.043 22.4094 171.693 22.7279 171.402 23.1526C171.119 23.5772 170.903 24.1009 170.755 24.7237C170.606 25.3465 170.532 26.0684 170.532 26.8894V27.6431C170.532 28.457 170.606 29.1789 170.755 29.8088C170.903 30.4316 171.123 30.9588 171.413 31.3906C171.703 31.8152 172.057 32.1372 172.475 32.3566C172.892 32.576 173.37 32.6857 173.908 32.6857C174.446 32.6857 174.923 32.576 175.341 32.3566C175.759 32.1372 176.109 31.8152 176.392 31.3906C176.675 30.9588 176.891 30.4316 177.04 29.8088C177.188 29.1789 177.262 28.457 177.262 27.6431ZM191.307 19.5431H194.482V29.7557C194.482 30.9447 194.227 31.9461 193.717 32.76C193.215 33.5739 192.518 34.1861 191.626 34.5966C190.741 35.0071 189.722 35.2123 188.568 35.2123C187.415 35.2123 186.389 35.0071 185.49 34.5966C184.598 34.1861 183.897 33.5739 183.388 32.76C182.885 31.9461 182.634 30.9447 182.634 29.7557V19.5431H185.819V29.7557C185.819 30.4493 185.929 31.0155 186.148 31.4543C186.367 31.8931 186.682 32.2151 187.093 32.4203C187.51 32.6256 188.002 32.7282 188.568 32.7282C189.149 32.7282 189.641 32.6256 190.044 32.4203C190.455 32.2151 190.766 31.8931 190.978 31.4543C191.198 31.0155 191.307 30.4493 191.307 29.7557V19.5431ZM202.677 31.7727L206.318 19.5431H209.864L204.482 35H202.146L202.677 31.7727ZM199.322 19.5431L202.953 31.7727L203.505 35H201.148L195.798 19.5431H199.322ZM221.68 32.5159V35H213.452V32.5159H221.68ZM214.493 19.5431V35H211.308V19.5431H214.493ZM220.608 25.8384V28.2589H213.452V25.8384H220.608ZM221.669 19.5431V22.0379H213.452V19.5431H221.669ZM229.822 22.1865L225.618 35H222.232L227.975 19.5431H230.13L229.822 22.1865ZM233.315 35L229.1 22.1865L228.761 19.5431H230.937L236.712 35H233.315ZM233.124 29.2461V31.7409H224.96V29.2461H233.124ZM246.489 19.5431H249.663V29.7557C249.663 30.9447 249.409 31.9461 248.899 32.76C248.397 33.5739 247.699 34.1861 246.808 34.5966C245.923 35.0071 244.904 35.2123 243.75 35.2123C242.597 35.2123 241.571 35.0071 240.672 34.5966C239.78 34.1861 239.079 33.5739 238.57 32.76C238.067 31.9461 237.816 30.9447 237.816 29.7557V19.5431H241.001V29.7557C241.001 30.4493 241.111 31.0155 241.33 31.4543C241.549 31.8931 241.864 32.2151 242.275 32.4203C242.692 32.6256 243.184 32.7282 243.75 32.7282C244.331 32.7282 244.823 32.6256 245.226 32.4203C245.636 32.2151 245.948 31.8931 246.16 31.4543C246.38 31.0155 246.489 30.4493 246.489 29.7557V19.5431ZM268.008 25.8384V28.3225H259.94V25.8384H268.008ZM260.885 19.5431V35H257.7V19.5431H260.885ZM270.28 19.5431V35H267.106V19.5431H270.28ZM285.747 26.9106V27.6431C285.747 28.818 285.588 29.8725 285.269 30.8067C284.951 31.7409 284.502 32.5371 283.921 33.1953C283.341 33.8464 282.647 34.3453 281.841 34.6921C281.041 35.0389 280.153 35.2123 279.176 35.2123C278.206 35.2123 277.318 35.0389 276.511 34.6921C275.712 34.3453 275.018 33.8464 274.431 33.1953C273.843 32.5371 273.387 31.7409 273.061 30.8067C272.743 29.8725 272.583 28.818 272.583 27.6431V26.9106C272.583 25.7287 272.743 24.6742 273.061 23.7471C273.38 22.8129 273.829 22.0167 274.409 21.3585C274.997 20.7003 275.69 20.1978 276.49 19.851C277.297 19.5042 278.185 19.3308 279.155 19.3308C280.131 19.3308 281.02 19.5042 281.819 19.851C282.626 20.1978 283.32 20.7003 283.9 21.3585C284.487 22.0167 284.94 22.8129 285.259 23.7471C285.584 24.6742 285.747 25.7287 285.747 26.9106ZM282.531 27.6431V26.8894C282.531 26.0684 282.456 25.3465 282.308 24.7237C282.159 24.1009 281.94 23.5772 281.649 23.1526C281.359 22.7279 281.005 22.4094 280.588 22.1971C280.17 21.9777 279.693 21.868 279.155 21.868C278.617 21.868 278.139 21.9777 277.722 22.1971C277.311 22.4094 276.961 22.7279 276.671 23.1526C276.387 23.5772 276.172 24.1009 276.023 24.7237C275.874 25.3465 275.8 26.0684 275.8 26.8894V27.6431C275.8 28.457 275.874 29.1789 276.023 29.8088C276.172 30.4316 276.391 30.9588 276.681 31.3906C276.971 31.8152 277.325 32.1372 277.743 32.3566C278.16 32.576 278.638 32.6857 279.176 32.6857C279.714 32.6857 280.191 32.576 280.609 32.3566C281.027 32.1372 281.377 31.8152 281.66 31.3906C281.943 30.9588 282.159 30.4316 282.308 29.8088C282.456 29.1789 282.531 28.457 282.531 27.6431ZM280.036 15.3923L283.242 18.3435V18.4709H280.811L279.144 16.921L277.499 18.4709H275.11V18.3117L278.263 15.3923H280.036ZM294.229 19.5431V35H291.055V19.5431H294.229ZM298.985 19.5431V22.0379H286.374V19.5431H298.985ZM311.172 32.5159V35H302.945V32.5159H311.172ZM303.985 19.5431V35H300.801V19.5431H303.985ZM310.1 25.8384V28.2589H302.945V25.8384H310.1ZM311.162 19.5431V22.0379H302.945V19.5431H311.162ZM322.967 32.5159V35H315.185V32.5159H322.967ZM316.215 19.5431V35H313.03V19.5431H316.215Z" fill="#555555"/>
</svg>
