<svg width="230" height="32" viewBox="0 0 230 32" fill="none" xmlns="http://www.w3.org/2000/svg">
<path d="M2.66602 2.66626H29.3286V29.3288L2.66602 2.66626Z" fill="white"/>
<path d="M2.66602 2.66626H22.663L15.9973 15.9975L2.66602 2.66626Z" fill="black" fill-opacity="0.15"/>
<path d="M2.66602 2.66626H15.9973L2.66602 29.3288V2.66626Z" fill="white"/>
<path d="M53.6582 7.71028H60.7274C62.1768 7.71028 63.4223 7.92726 64.4638 8.36122C65.514 8.79518 66.3212 9.43745 66.8853 10.2881C67.4495 11.1386 67.7315 12.1845 67.7315 13.4256C67.7315 14.4411 67.5579 15.3133 67.2108 16.0424C66.8723 16.7628 66.3906 17.366 65.7657 17.852C65.1495 18.3294 64.4247 18.7112 63.5915 18.9977L62.3548 19.6486H56.2099L56.1838 16.6022H60.7534C61.4391 16.6022 62.0076 16.4807 62.4589 16.2377C62.9102 15.9946 63.2487 15.6562 63.4744 15.2222C63.7087 14.7882 63.8259 14.2848 63.8259 13.712C63.8259 13.1045 63.7131 12.5794 63.4874 12.1367C63.2617 11.6941 62.9189 11.3556 62.4589 11.1213C61.9989 10.8869 61.4217 10.7697 60.7274 10.7697H57.5638V26.6657H53.6582V7.71028ZM64.2555 26.6657L59.9332 18.2165L64.0602 18.1905L68.4346 26.4835V26.6657H64.2555ZM83.4583 23.6193V26.6657H73.3687V23.6193H83.4583ZM74.6445 7.71028V26.6657H70.7389V7.71028H74.6445ZM82.1434 15.4305V18.3988H73.3687V15.4305H82.1434ZM83.4453 7.71028V10.7697H73.3687V7.71028H83.4453ZM91.556 26.6657H87.429L87.4551 23.6193H91.556C92.5802 23.6193 93.4437 23.3893 94.1468 22.9293C94.8498 22.4607 95.3792 21.7793 95.7351 20.8854C96.0996 19.9914 96.2818 18.9109 96.2818 17.6437V16.7194C96.2818 15.7473 96.1777 14.8924 95.9694 14.1546C95.7698 13.4169 95.4703 12.7963 95.0711 12.293C94.6718 11.7896 94.1815 11.412 93.6 11.1603C93.0185 10.8999 92.3502 10.7697 91.5951 10.7697H87.3509V7.71028H91.5951C92.8622 7.71028 94.0209 7.92726 95.0711 8.36122C96.13 8.78651 97.0456 9.39839 97.8181 10.1969C98.5905 10.9954 99.185 11.9501 99.6016 13.0611C100.027 14.1633 100.24 15.3914 100.24 16.7454V17.6437C100.24 18.989 100.027 20.2171 99.6016 21.328C99.185 22.439 98.5905 23.3937 97.8181 24.1922C97.0543 24.982 96.1386 25.5939 95.0711 26.0278C94.0122 26.4531 92.8405 26.6657 91.556 26.6657ZM89.6422 7.71028V26.6657H85.7366V7.71028H89.6422ZM117.099 19.909H112.269V16.8626H117.099C117.845 16.8626 118.453 16.7411 118.922 16.498C119.39 16.2463 119.733 15.8992 119.95 15.4565C120.167 15.0139 120.276 14.5148 120.276 13.9594C120.276 13.3952 120.167 12.8701 119.95 12.3841C119.733 11.898 119.39 11.5075 118.922 11.2124C118.453 10.9173 117.845 10.7697 117.099 10.7697H113.623V26.6657H109.717V7.71028H117.099C118.583 7.71028 119.855 7.97934 120.914 8.51745C121.981 9.04688 122.797 9.78028 123.361 10.7177C123.925 11.655 124.207 12.7269 124.207 13.9333C124.207 15.1571 123.925 16.216 123.361 17.1099C122.797 18.0039 121.981 18.6939 120.914 19.1799C119.855 19.666 118.583 19.909 117.099 19.909ZM126.902 7.71028H133.971C135.421 7.71028 136.666 7.92726 137.708 8.36122C138.758 8.79518 139.565 9.43745 140.129 10.2881C140.694 11.1386 140.976 12.1845 140.976 13.4256C140.976 14.4411 140.802 15.3133 140.455 16.0424C140.116 16.7628 139.635 17.366 139.01 17.852C138.394 18.3294 137.669 18.7112 136.836 18.9977L135.599 19.6486H129.454L129.428 16.6022H133.998C134.683 16.6022 135.252 16.4807 135.703 16.2377C136.154 15.9946 136.493 15.6562 136.718 15.2222C136.953 14.7882 137.07 14.2848 137.07 13.712C137.07 13.1045 136.957 12.5794 136.731 12.1367C136.506 11.6941 136.163 11.3556 135.703 11.1213C135.243 10.8869 134.666 10.7697 133.971 10.7697H130.808V26.6657H126.902V7.71028ZM137.5 26.6657L133.177 18.2165L137.304 18.1905L141.679 26.4835V26.6657H137.5ZM159.553 16.7454V17.6437C159.553 19.0844 159.358 20.3777 158.968 21.5233C158.577 22.669 158.026 23.6454 157.314 24.4525C156.603 25.251 155.752 25.8629 154.763 26.2882C153.782 26.7135 152.693 26.9261 151.495 26.9261C150.306 26.9261 149.217 26.7135 148.227 26.2882C147.246 25.8629 146.396 25.251 145.675 24.4525C144.955 23.6454 144.395 22.669 143.996 21.5233C143.605 20.3777 143.41 19.0844 143.41 17.6437V16.7454C143.41 15.296 143.605 14.0028 143.996 12.8658C144.387 11.7201 144.938 10.7437 145.649 9.9365C146.37 9.12933 147.22 8.51311 148.201 8.08783C149.191 7.66255 150.28 7.4499 151.469 7.4499C152.667 7.4499 153.756 7.66255 154.737 8.08783C155.726 8.51311 156.577 9.12933 157.288 9.9365C158.009 10.7437 158.564 11.7201 158.955 12.8658C159.354 14.0028 159.553 15.296 159.553 16.7454ZM155.609 17.6437V16.7194C155.609 15.7126 155.518 14.8273 155.335 14.0635C155.153 13.2997 154.884 12.6575 154.528 12.1367C154.172 11.616 153.738 11.2254 153.226 10.965C152.714 10.696 152.128 10.5614 151.469 10.5614C150.809 10.5614 150.223 10.696 149.711 10.965C149.208 11.2254 148.778 11.616 148.422 12.1367C148.075 12.6575 147.811 13.2997 147.628 14.0635C147.446 14.8273 147.355 15.7126 147.355 16.7194V17.6437C147.355 18.6418 147.446 19.5271 147.628 20.2995C147.811 21.0633 148.08 21.7099 148.435 22.2393C148.791 22.7601 149.225 23.155 149.737 23.4241C150.249 23.6931 150.835 23.8276 151.495 23.8276C152.154 23.8276 152.74 23.6931 153.252 23.4241C153.764 23.155 154.194 22.7601 154.541 22.2393C154.888 21.7099 155.153 21.0633 155.335 20.2995C155.518 19.5271 155.609 18.6418 155.609 17.6437ZM168.185 26.6657H164.058L164.084 23.6193H168.185C169.209 23.6193 170.073 23.3893 170.776 22.9293C171.479 22.4607 172.008 21.7793 172.364 20.8854C172.729 19.9914 172.911 18.9109 172.911 17.6437V16.7194C172.911 15.7473 172.807 14.8924 172.598 14.1546C172.399 13.4169 172.099 12.7963 171.7 12.293C171.301 11.7896 170.81 11.412 170.229 11.1603C169.647 10.8999 168.979 10.7697 168.224 10.7697H163.98V7.71028H168.224C169.491 7.71028 170.65 7.92726 171.7 8.36122C172.759 8.78651 173.675 9.39839 174.447 10.1969C175.22 10.9954 175.814 11.9501 176.231 13.0611C176.656 14.1633 176.869 15.3914 176.869 16.7454V17.6437C176.869 18.989 176.656 20.2171 176.231 21.328C175.814 22.439 175.22 23.3937 174.447 24.1922C173.683 24.982 172.768 25.5939 171.7 26.0278C170.641 26.4531 169.47 26.6657 168.185 26.6657ZM166.271 7.71028V26.6657H162.366V7.71028H166.271ZM190.174 7.71028H194.066V20.2344C194.066 21.6926 193.754 22.9207 193.129 23.9188C192.513 24.9169 191.658 25.6676 190.564 26.171C189.479 26.6744 188.23 26.9261 186.815 26.9261C185.4 26.9261 184.142 26.6744 183.039 26.171C181.946 25.6676 181.087 24.9169 180.462 23.9188C179.846 22.9207 179.537 21.6926 179.537 20.2344V7.71028H183.443V20.2344C183.443 21.085 183.578 21.7793 183.847 22.3175C184.116 22.8556 184.502 23.2505 185.005 23.5022C185.517 23.7539 186.121 23.8797 186.815 23.8797C187.527 23.8797 188.13 23.7539 188.625 23.5022C189.128 23.2505 189.51 22.8556 189.77 22.3175C190.039 21.7793 190.174 21.085 190.174 20.2344V7.71028ZM208.27 20.3777H212.163C212.085 21.6535 211.733 22.7861 211.108 23.7756C210.492 24.765 209.628 25.5375 208.517 26.0929C207.415 26.6484 206.087 26.9261 204.534 26.9261C203.318 26.9261 202.229 26.7178 201.266 26.3012C200.302 25.8759 199.478 25.2684 198.792 24.4786C198.115 23.6888 197.599 22.7341 197.243 21.6144C196.887 20.4948 196.709 19.2407 196.709 17.852V16.5371C196.709 15.1484 196.892 13.8943 197.256 12.7746C197.629 11.6463 198.159 10.6873 198.844 9.89745C199.539 9.10764 200.368 8.50009 201.331 8.07481C202.294 7.64953 203.371 7.43689 204.56 7.43689C206.139 7.43689 207.472 7.7233 208.556 8.29613C209.65 8.86896 210.496 9.65877 211.095 10.6656C211.703 11.6724 212.067 12.818 212.189 14.1026H208.283C208.24 13.3388 208.088 12.6922 207.827 12.1628C207.567 11.6247 207.172 11.2211 206.643 10.952C206.122 10.6743 205.428 10.5354 204.56 10.5354C203.909 10.5354 203.34 10.6569 202.854 10.8999C202.368 11.143 201.96 11.5118 201.63 12.0065C201.301 12.5013 201.053 13.1262 200.888 13.8813C200.732 14.6277 200.654 15.5043 200.654 16.5111V17.852C200.654 18.8327 200.728 19.6963 200.875 20.4427C201.023 21.1805 201.249 21.8054 201.552 22.3175C201.865 22.8209 202.264 23.2027 202.75 23.4631C203.245 23.7148 203.839 23.8407 204.534 23.8407C205.349 23.8407 206.022 23.7105 206.552 23.4501C207.081 23.1897 207.485 22.8035 207.762 22.2914C208.049 21.7793 208.218 21.1414 208.27 20.3777ZM222.812 7.71028V26.6657H218.919V7.71028H222.812ZM228.644 7.71028V10.7697H213.178V7.71028H228.644Z" fill="white" fill-opacity="0.87"/>
</svg>
