<svg width="14" height="19" viewBox="0 0 14 19" fill="none" xmlns="http://www.w3.org/2000/svg">
<path d="M7.74825 8.34457C8.27942 8.34457 8.73248 8.14148 9.10742 7.73529C9.51361 7.3291 9.7167 6.86042 9.7167 6.32926C9.7167 5.79809 9.51361 5.32941 9.10742 4.92322C8.73248 4.51703 8.27942 4.31394 7.74825 4.31394H4.51437V8.34457H7.74825ZM7.51391 0.330175C9.16991 0.330175 10.5759 0.923834 11.732 2.11115C12.9193 3.26723 13.513 4.67326 13.513 6.32926C13.513 7.98525 12.9193 9.40691 11.732 10.5942C10.5759 11.7503 9.16991 12.3283 7.51391 12.3283H4.51437V18.3274H0.530609V0.330175H7.51391Z" fill="white" fill-opacity="0.87"/>
</svg>
