<svg width="21" height="15" viewBox="0 0 21 15" fill="none" xmlns="http://www.w3.org/2000/svg">
<path d="M7.52942 8.31302C8.21681 8.31302 9.01356 8.40676 9.91968 8.59423C8.32617 9.46909 7.52942 10.6252 7.52942 12.0624V14.3121H0.546112V11.8281C0.546112 11.1095 0.967923 10.4689 1.81154 9.90653C2.68641 9.34411 3.63939 8.93792 4.67048 8.68796C5.70157 8.438 6.65455 8.31302 7.52942 8.31302ZM11.4194 10.094C12.6693 9.59407 13.8722 9.34411 15.0283 9.34411C16.1843 9.34411 17.3873 9.59407 18.6371 10.094C19.8869 10.5939 20.5118 11.2501 20.5118 12.0624V14.3121H9.54473V12.0624C9.54473 11.2501 10.1696 10.5939 11.4194 10.094ZM9.63847 5.45408C9.04481 6.04774 8.34179 6.34457 7.52942 6.34457C6.71704 6.34457 6.01402 6.04774 5.42037 5.45408C4.82671 4.86042 4.52988 4.15741 4.52988 3.34503C4.52988 2.53266 4.82671 1.82964 5.42037 1.23598C6.01402 0.642321 6.71704 0.345492 7.52942 0.345492C8.34179 0.345492 9.04481 0.642321 9.63847 1.23598C10.2321 1.82964 10.529 2.53266 10.529 3.34503C10.529 4.15741 10.2321 4.86042 9.63847 5.45408ZM16.7624 6.62578C16.2937 7.09446 15.7157 7.3288 15.0283 7.3288C14.3409 7.3288 13.7472 7.09446 13.2473 6.62578C12.7786 6.12586 12.5443 5.5322 12.5443 4.8448C12.5443 4.15741 12.7786 3.56375 13.2473 3.06382C13.7472 2.5639 14.3409 2.31394 15.0283 2.31394C15.7157 2.31394 16.2937 2.5639 16.7624 3.06382C17.2623 3.56375 17.5123 4.15741 17.5123 4.8448C17.5123 5.5322 17.2623 6.12586 16.7624 6.62578Z" fill="white" fill-opacity="0.87"/>
</svg>
